<?xml version="1.0" encoding="UTF-8"?>
<svg width="15px" height="11px" viewBox="0 0 15 11" version="1.1" xmlns="http://www.w3.org/2000/svg" xmlns:xlink="http://www.w3.org/1999/xlink">
    <!-- Generator: Sketch 50 (54983) - http://www.bohemiancoding.com/sketch -->
    <title>Shape</title>
    <desc>Created with Sketch.</desc>
    <defs></defs>
    <g id="Page-1" stroke="none" stroke-width="1" fill="none" fill-rule="evenodd">
        <g id="1" transform="translate(-1073.000000, -439.000000)" fill="#1E201D">
            <g id="show-more" transform="translate(1080.500000, 444.500000) rotate(-90.000000) translate(-1080.500000, -444.500000) translate(1062.000000, 419.000000)">
                <path d="M21.1136692,20.2747191 C20.9083095,20.0586617 20.566522,20.0586617 20.3539819,20.2747191 C20.1486221,20.4834773 20.1486221,20.830921 20.3539819,21.0391926 L24.2060325,24.9549903 L11.494792,24.9549903 C11.1984804,24.9554769 10.962963,25.1948919 10.962963,25.4961071 C10.962963,25.7973223 11.1984804,26.0445231 11.494792,26.0445231 L24.2060325,26.0445231 L20.3539819,29.9530215 C20.1486221,30.169079 20.1486221,30.5170093 20.3539819,30.7252809 C20.566522,30.9413383 20.9087882,30.9413383 21.1136692,30.7252809 L25.8776319,25.88248 C26.0901721,25.6737219 26.0901721,25.3262781 25.8776319,25.1180066 L21.1136692,20.2747191 Z" id="Shape" transform="translate(18.500000, 25.500000) rotate(-270.000000) translate(-18.500000, -25.500000) "></path>
            </g>
        </g>
    </g>
</svg>